<svg xmlns="http://www.w3.org/2000/svg" viewBox="0 0 1600 752" preserveAspectRatio="xMidYMid" width="1600" height="752" xmlns:xlink="http://www.w3.org/1999/xlink" style="shape-rendering:auto;display:block;background-position-x:0%;background-position-y:0%;background-size:auto;background-origin:padding-box;background-clip:border-box;background:scroll rgb(255, 255, 255) none  repeat;width:1600px;height:752px;;animation:none"><g><linearGradient y2="0" y1="0" x2="1" x1="0" id="lg-0.8496901003603999"><stop offset="0" stop-color="#e5360f"></stop>

  
<stop offset="1" stop-color="#00ffff"></stop></linearGradient>
<path opacity="0.4" fill="url(#lg-0.8496901003603999)" d="M 1335.4 376 C 1335.4 532.8 1086.8 750.8 937.8 799 C 788.8 847.2 508.2 781.2 416 654.6 C 323.8 528 249.2 169.2 341.4 42.6 C 433.6 -84 783 -78.8 932 -30.6 C 1081 17.6 1335.4 219.2 1335.4 376" style="fill:url('#lg-0.8496901003603999');opacity:0.4;;animation:none"></path>
<path opacity="0.4" fill="url(#lg-0.8496901003603999)" d="M 1322.2 376 C 1322.2 535.4 1086.8 744.8 935.4 793.8 C 784 842.8 452.2 825.4 358.6 696 C 265 566.6 325.6 227.6 419.2 99 C 512.8 -29.6 779 -74.8 930.4 -25.8 C 1081.8 23.2 1322.2 216.6 1322.2 376" style="fill:url('#lg-0.8496901003603999');opacity:0.4;;animation:none"></path>
<path opacity="0.4" fill="url(#lg-0.8496901003603999)" d="M 1275.2 376 C 1275.2 515.8 1048.2 688.2 915.4 731.2 C 782.6 774.2 523.8 749 441.8 636 C 359.8 523 324.2 202.6 406.2 89.8 C 488.2 -23 778.2 -9.8 911 33.2 C 1043.8 76.2 1275.2 236.2 1275.2 376" style="fill:url('#lg-0.8496901003603999');opacity:0.4;;animation:none"></path>
<path opacity="0.4" fill="url(#lg-0.8496901003603999)" d="M 1331.8 376 C 1331.8 530.2 1073 719.4 926.6 767 C 780.2 814.6 491.2 791.2 400.4 666.6 C 309.6 542 288.8 195.4 379.8 70.8 C 470.8 -53.8 785.2 -78.2 931.6 -30.8 C 1078 16.6 1331.8 221.8 1331.8 376" style="fill:url('#lg-0.8496901003603999');opacity:0.4;;animation:none"></path>
<path opacity="0.4" fill="url(#lg-0.8496901003603999)" d="M 1333.8 376 C 1333.8 523.8 1051.6 669.4 910.8 715.4 C 770 761.4 481 790.4 394 671 C 307 551.6 324.8 213.6 411.8 94.2 C 498.8 -25.2 786.6 -61.8 927.4 -16 C 1068.2 29.8 1333.8 228.2 1333.8 376" style="fill:url('#lg-0.8496901003603999');opacity:0.4;;animation:none"></path>
<g></g></g></svg>